<mxfile host="app.diagrams.net" modified="2023-07-11T23:47:27.161Z" agent="Mozilla/5.0 (Macintosh; Intel Mac OS X 10_15_7) AppleWebKit/537.36 (KHTML, like Gecko) Chrome/114.0.0.0 Safari/537.36" version="21.5.0" etag="Wh6G_x0ykcY20GBgnW-U" type="github">
  <diagram name="Page-1" id="rBJOE1emaOm4SNVwOK-t">
    <mxGraphModel>
      <root>
        <mxCell id="0" />
        <mxCell id="1" parent="0" />
      </root>
    </mxGraphModel>
  </diagram>
</mxfile>
